<mxfile host="Electron" modified="2024-06-06T02:27:23.873Z" agent="Mozilla/5.0 (Windows NT 10.0; Win64; x64) AppleWebKit/537.36 (KHTML, like Gecko) draw.io/24.2.5 Chrome/120.0.6099.109 Electron/28.1.0 Safari/537.36" etag="hEVIqmMTyCmD-aLA2l_q" version="24.2.5" type="device">
  <diagram name="페이지-1" id="o4b5T6HQ4n37wjggpMF2">
    <mxGraphModel dx="1194" dy="657" grid="1" gridSize="10" guides="1" tooltips="1" connect="1" arrows="1" fold="1" page="1" pageScale="1" pageWidth="827" pageHeight="1169" math="0" shadow="0">
      <root>
        <mxCell id="0" />
        <mxCell id="1" parent="0" />
        <mxCell id="LLnH0UTpWP3KemQwF6sR-4" value="" style="edgeStyle=orthogonalEdgeStyle;rounded=0;orthogonalLoop=1;jettySize=auto;html=1;" parent="1" source="LLnH0UTpWP3KemQwF6sR-1" target="LLnH0UTpWP3KemQwF6sR-3" edge="1">
          <mxGeometry relative="1" as="geometry" />
        </mxCell>
        <mxCell id="LLnH0UTpWP3KemQwF6sR-1" value="start" style="rounded=1;whiteSpace=wrap;html=1;" parent="1" vertex="1">
          <mxGeometry x="320" y="90" width="120" height="60" as="geometry" />
        </mxCell>
        <mxCell id="LLnH0UTpWP3KemQwF6sR-12" value="" style="edgeStyle=orthogonalEdgeStyle;rounded=0;orthogonalLoop=1;jettySize=auto;html=1;" parent="1" source="LLnH0UTpWP3KemQwF6sR-3" target="LLnH0UTpWP3KemQwF6sR-11" edge="1">
          <mxGeometry relative="1" as="geometry" />
        </mxCell>
        <mxCell id="LLnH0UTpWP3KemQwF6sR-3" value="open control server" style="rounded=0;whiteSpace=wrap;html=1;" parent="1" vertex="1">
          <mxGeometry x="320" y="170" width="120" height="60" as="geometry" />
        </mxCell>
        <mxCell id="LLnH0UTpWP3KemQwF6sR-8" value="" style="edgeStyle=orthogonalEdgeStyle;rounded=0;orthogonalLoop=1;jettySize=auto;html=1;" parent="1" source="LLnH0UTpWP3KemQwF6sR-5" target="LLnH0UTpWP3KemQwF6sR-7" edge="1">
          <mxGeometry relative="1" as="geometry" />
        </mxCell>
        <mxCell id="LLnH0UTpWP3KemQwF6sR-5" value="accept client" style="whiteSpace=wrap;html=1;" parent="1" vertex="1">
          <mxGeometry x="320" y="330" width="120" height="60" as="geometry" />
        </mxCell>
        <mxCell id="LLnH0UTpWP3KemQwF6sR-16" style="edgeStyle=orthogonalEdgeStyle;rounded=0;orthogonalLoop=1;jettySize=auto;html=1;entryX=1;entryY=0.5;entryDx=0;entryDy=0;" parent="1" source="LLnH0UTpWP3KemQwF6sR-7" target="LLnH0UTpWP3KemQwF6sR-11" edge="1">
          <mxGeometry relative="1" as="geometry">
            <Array as="points">
              <mxPoint x="460" y="440" />
              <mxPoint x="460" y="280" />
            </Array>
          </mxGeometry>
        </mxCell>
        <mxCell id="LLnH0UTpWP3KemQwF6sR-18" value="parent" style="edgeLabel;html=1;align=center;verticalAlign=middle;resizable=0;points=[];" parent="LLnH0UTpWP3KemQwF6sR-16" vertex="1" connectable="0">
          <mxGeometry x="-0.82" y="1" relative="1" as="geometry">
            <mxPoint y="11" as="offset" />
          </mxGeometry>
        </mxCell>
        <mxCell id="LLnH0UTpWP3KemQwF6sR-23" value="" style="edgeStyle=orthogonalEdgeStyle;rounded=0;orthogonalLoop=1;jettySize=auto;html=1;" parent="1" source="LLnH0UTpWP3KemQwF6sR-7" target="LLnH0UTpWP3KemQwF6sR-22" edge="1">
          <mxGeometry relative="1" as="geometry" />
        </mxCell>
        <mxCell id="Gq_gQURCSD_xNbDX0_rM-1" value="child" style="edgeLabel;html=1;align=center;verticalAlign=middle;resizable=0;points=[];" vertex="1" connectable="0" parent="LLnH0UTpWP3KemQwF6sR-23">
          <mxGeometry x="0.5333" y="-2" relative="1" as="geometry">
            <mxPoint x="-18" y="4" as="offset" />
          </mxGeometry>
        </mxCell>
        <mxCell id="LLnH0UTpWP3KemQwF6sR-7" value="fork()" style="whiteSpace=wrap;html=1;" parent="1" vertex="1">
          <mxGeometry x="320" y="410" width="120" height="60" as="geometry" />
        </mxCell>
        <mxCell id="LLnH0UTpWP3KemQwF6sR-14" style="edgeStyle=orthogonalEdgeStyle;rounded=0;orthogonalLoop=1;jettySize=auto;html=1;entryX=0.5;entryY=0;entryDx=0;entryDy=0;" parent="1" source="LLnH0UTpWP3KemQwF6sR-11" target="LLnH0UTpWP3KemQwF6sR-5" edge="1">
          <mxGeometry relative="1" as="geometry" />
        </mxCell>
        <mxCell id="LLnH0UTpWP3KemQwF6sR-11" value="listen" style="whiteSpace=wrap;html=1;" parent="1" vertex="1">
          <mxGeometry x="320" y="250" width="120" height="60" as="geometry" />
        </mxCell>
        <mxCell id="LLnH0UTpWP3KemQwF6sR-25" value="" style="edgeStyle=orthogonalEdgeStyle;rounded=0;orthogonalLoop=1;jettySize=auto;html=1;" parent="1" source="LLnH0UTpWP3KemQwF6sR-22" target="LLnH0UTpWP3KemQwF6sR-24" edge="1">
          <mxGeometry relative="1" as="geometry" />
        </mxCell>
        <mxCell id="LLnH0UTpWP3KemQwF6sR-22" value="check clients&#39; ip" style="whiteSpace=wrap;html=1;" parent="1" vertex="1">
          <mxGeometry x="320" y="490" width="120" height="60" as="geometry" />
        </mxCell>
        <mxCell id="LLnH0UTpWP3KemQwF6sR-28" value="" style="edgeStyle=orthogonalEdgeStyle;rounded=0;orthogonalLoop=1;jettySize=auto;html=1;" parent="1" source="LLnH0UTpWP3KemQwF6sR-24" target="LLnH0UTpWP3KemQwF6sR-26" edge="1">
          <mxGeometry relative="1" as="geometry" />
        </mxCell>
        <mxCell id="LLnH0UTpWP3KemQwF6sR-24" value="check&lt;div&gt;user name&lt;/div&gt;&lt;div&gt;&amp;amp; user passwd&lt;/div&gt;" style="whiteSpace=wrap;html=1;" parent="1" vertex="1">
          <mxGeometry x="320" y="570" width="120" height="60" as="geometry" />
        </mxCell>
        <mxCell id="LLnH0UTpWP3KemQwF6sR-31" value="" style="edgeStyle=orthogonalEdgeStyle;rounded=0;orthogonalLoop=1;jettySize=auto;html=1;" parent="1" source="LLnH0UTpWP3KemQwF6sR-26" target="LLnH0UTpWP3KemQwF6sR-27" edge="1">
          <mxGeometry relative="1" as="geometry" />
        </mxCell>
        <mxCell id="Gq_gQURCSD_xNbDX0_rM-7" style="edgeStyle=orthogonalEdgeStyle;rounded=0;orthogonalLoop=1;jettySize=auto;html=1;entryX=0;entryY=0.5;entryDx=0;entryDy=0;" edge="1" parent="1" source="LLnH0UTpWP3KemQwF6sR-26" target="Gq_gQURCSD_xNbDX0_rM-6">
          <mxGeometry relative="1" as="geometry" />
        </mxCell>
        <mxCell id="Gq_gQURCSD_xNbDX0_rM-8" value="QUIT" style="edgeLabel;html=1;align=center;verticalAlign=middle;resizable=0;points=[];" vertex="1" connectable="0" parent="Gq_gQURCSD_xNbDX0_rM-7">
          <mxGeometry x="-0.05" y="-2" relative="1" as="geometry">
            <mxPoint y="8" as="offset" />
          </mxGeometry>
        </mxCell>
        <mxCell id="LLnH0UTpWP3KemQwF6sR-26" value="read ftp command" style="whiteSpace=wrap;html=1;" parent="1" vertex="1">
          <mxGeometry x="320" y="650" width="120" height="60" as="geometry" />
        </mxCell>
        <mxCell id="LLnH0UTpWP3KemQwF6sR-34" value="" style="edgeStyle=orthogonalEdgeStyle;rounded=0;orthogonalLoop=1;jettySize=auto;html=1;" parent="1" target="LLnH0UTpWP3KemQwF6sR-33" edge="1">
          <mxGeometry relative="1" as="geometry">
            <mxPoint x="380" y="790" as="sourcePoint" />
          </mxGeometry>
        </mxCell>
        <mxCell id="LLnH0UTpWP3KemQwF6sR-39" value="yes" style="edgeLabel;html=1;align=center;verticalAlign=middle;resizable=0;points=[];" parent="LLnH0UTpWP3KemQwF6sR-34" vertex="1" connectable="0">
          <mxGeometry x="-0.7779" relative="1" as="geometry">
            <mxPoint x="-10" y="8" as="offset" />
          </mxGeometry>
        </mxCell>
        <mxCell id="LLnH0UTpWP3KemQwF6sR-40" style="edgeStyle=orthogonalEdgeStyle;rounded=0;orthogonalLoop=1;jettySize=auto;html=1;entryX=1;entryY=0.5;entryDx=0;entryDy=0;" parent="1" source="LLnH0UTpWP3KemQwF6sR-27" target="LLnH0UTpWP3KemQwF6sR-37" edge="1">
          <mxGeometry relative="1" as="geometry">
            <Array as="points">
              <mxPoint x="460" y="760" />
              <mxPoint x="460" y="1000" />
            </Array>
          </mxGeometry>
        </mxCell>
        <mxCell id="LLnH0UTpWP3KemQwF6sR-27" value="port command?" style="whiteSpace=wrap;html=1;" parent="1" vertex="1">
          <mxGeometry x="320" y="730" width="120" height="60" as="geometry" />
        </mxCell>
        <mxCell id="LLnH0UTpWP3KemQwF6sR-36" value="" style="edgeStyle=orthogonalEdgeStyle;rounded=0;orthogonalLoop=1;jettySize=auto;html=1;" parent="1" source="LLnH0UTpWP3KemQwF6sR-33" target="LLnH0UTpWP3KemQwF6sR-35" edge="1">
          <mxGeometry relative="1" as="geometry" />
        </mxCell>
        <mxCell id="LLnH0UTpWP3KemQwF6sR-33" value="connect&lt;div&gt;data connection&lt;/div&gt;" style="whiteSpace=wrap;html=1;" parent="1" vertex="1">
          <mxGeometry x="320" y="810" width="120" height="60" as="geometry" />
        </mxCell>
        <mxCell id="LLnH0UTpWP3KemQwF6sR-38" value="" style="edgeStyle=orthogonalEdgeStyle;rounded=0;orthogonalLoop=1;jettySize=auto;html=1;" parent="1" source="LLnH0UTpWP3KemQwF6sR-35" target="LLnH0UTpWP3KemQwF6sR-37" edge="1">
          <mxGeometry relative="1" as="geometry" />
        </mxCell>
        <mxCell id="LLnH0UTpWP3KemQwF6sR-35" value="send&lt;div&gt;the result of&lt;div&gt;ftp command&lt;/div&gt;&lt;/div&gt;" style="whiteSpace=wrap;html=1;" parent="1" vertex="1">
          <mxGeometry x="320" y="890" width="120" height="60" as="geometry" />
        </mxCell>
        <mxCell id="LLnH0UTpWP3KemQwF6sR-44" value="" style="edgeStyle=orthogonalEdgeStyle;rounded=0;orthogonalLoop=1;jettySize=auto;html=1;" parent="1" source="LLnH0UTpWP3KemQwF6sR-37" target="LLnH0UTpWP3KemQwF6sR-43" edge="1">
          <mxGeometry relative="1" as="geometry" />
        </mxCell>
        <mxCell id="LLnH0UTpWP3KemQwF6sR-37" value="send code to client" style="whiteSpace=wrap;html=1;" parent="1" vertex="1">
          <mxGeometry x="320" y="970" width="120" height="60" as="geometry" />
        </mxCell>
        <mxCell id="LLnH0UTpWP3KemQwF6sR-45" style="edgeStyle=orthogonalEdgeStyle;rounded=0;orthogonalLoop=1;jettySize=auto;html=1;entryX=0;entryY=0.5;entryDx=0;entryDy=0;" parent="1" source="LLnH0UTpWP3KemQwF6sR-43" target="LLnH0UTpWP3KemQwF6sR-26" edge="1">
          <mxGeometry relative="1" as="geometry">
            <Array as="points">
              <mxPoint x="300" y="1080" />
              <mxPoint x="300" y="680" />
            </Array>
            <mxPoint x="480" y="640" as="targetPoint" />
          </mxGeometry>
        </mxCell>
        <mxCell id="LLnH0UTpWP3KemQwF6sR-43" value="write log" style="whiteSpace=wrap;html=1;" parent="1" vertex="1">
          <mxGeometry x="320" y="1050" width="120" height="60" as="geometry" />
        </mxCell>
        <mxCell id="Gq_gQURCSD_xNbDX0_rM-6" value="exit" style="whiteSpace=wrap;html=1;" vertex="1" parent="1">
          <mxGeometry x="520" y="650" width="120" height="60" as="geometry" />
        </mxCell>
      </root>
    </mxGraphModel>
  </diagram>
</mxfile>
